<?xml version="1.0" encoding="UTF-8" standalone="no"?>
<!DOCTYPE svg PUBLIC "-//W3C//DTD SVG 1.1//EN"
 "http://www.w3.org/Graphics/SVG/1.1/DTD/svg11.dtd">
<!-- Generated by graphviz version 2.40.1 (20161225.0304)
 -->
<!-- Title: model Pages: 1 -->
<svg width="171pt" height="800pt"
 viewBox="0.00 0.00 170.60 800.00" xmlns="http://www.w3.org/2000/svg" xmlns:xlink="http://www.w3.org/1999/xlink">
<g id="graph0" class="graph" transform="scale(1 1) rotate(0) translate(4 796)">
<title>model</title>
<polygon fill="#ffffff" stroke="transparent" points="-4,4 -4,-796 166.5952,-796 166.5952,4 -4,4"/>
<!-- BWD_U2 -->
<g id="node1" class="node">
<title>BWD_U2</title>
<polygon fill="#8fbc8f" stroke="#8fbc8f" points="72,-792 0,-792 0,-756 72,-756 72,-792"/>
<text text-anchor="middle" x="36" y="-770.3" font-family="Times,serif" font-size="14.00" fill="#000000">BWD_U2</text>
</g>
<!-- ELC -->
<g id="node16" class="node">
<title>ELC</title>
<ellipse fill="#b0c4de" stroke="#b0c4de" cx="135.2976" cy="-396" rx="27.0966" ry="27.0966"/>
<text text-anchor="middle" x="135.2976" y="-392.3" font-family="Times,serif" font-size="14.00" fill="#000000">ELC</text>
</g>
<!-- BWD_U2&#45;&gt;ELC -->
<g id="edge14" class="edge">
<title>BWD_U2&#45;&gt;ELC</title>
<path fill="none" stroke="#228b22" d="M64.7778,-755.8121C67.5344,-753.1352 70.0308,-750.1914 72,-747 104.2466,-694.7401 124.5218,-512.7586 132.0188,-433.439"/>
<polygon fill="#228b22" stroke="#228b22" points="132.9513,-423.397 136.5073,-433.7703 132.4889,-428.3756 132.0266,-433.3542 132.0266,-433.3542 132.0266,-433.3542 132.4889,-428.3756 127.5459,-432.9381 132.9513,-423.397 132.9513,-423.397"/>
</g>
<!-- DRS_U3 -->
<g id="node2" class="node">
<title>DRS_U3</title>
<polygon fill="#8fbc8f" stroke="#8fbc8f" points="69,-738 3,-738 3,-702 69,-702 69,-738"/>
<text text-anchor="middle" x="36" y="-716.3" font-family="Times,serif" font-size="14.00" fill="#000000">DRS_U3</text>
</g>
<!-- DRS_U3&#45;&gt;ELC -->
<g id="edge9" class="edge">
<title>DRS_U3&#45;&gt;ELC</title>
<path fill="none" stroke="#228b22" d="M64.6785,-701.7497C67.453,-699.084 69.9807,-696.1599 72,-693 99.4081,-650.1112 121.4806,-502.9591 130.674,-433.2239"/>
<polygon fill="#228b22" stroke="#228b22" points="131.987,-423.121 135.1606,-433.6176 131.3426,-428.0793 130.6981,-433.0376 130.6981,-433.0376 130.6981,-433.0376 131.3426,-428.0793 126.2357,-432.4576 131.987,-423.121 131.987,-423.121"/>
</g>
<!-- CLN_U1 -->
<g id="node3" class="node">
<title>CLN_U1</title>
<polygon fill="#8fbc8f" stroke="#8fbc8f" points="69.5,-684 2.5,-684 2.5,-648 69.5,-648 69.5,-684"/>
<text text-anchor="middle" x="36" y="-662.3" font-family="Times,serif" font-size="14.00" fill="#000000">CLN_U1</text>
</g>
<!-- CLN_U1&#45;&gt;ELC -->
<g id="edge6" class="edge">
<title>CLN_U1&#45;&gt;ELC</title>
<path fill="none" stroke="#228b22" d="M64.1881,-647.9884C67.1236,-645.2501 69.8233,-642.2436 72,-639 114.7515,-575.2954 128.6375,-484.3434 133.1415,-433.7097"/>
<polygon fill="#228b22" stroke="#228b22" points="133.9672,-423.5413 137.643,-433.8728 133.5625,-428.5249 133.1577,-433.5085 133.1577,-433.5085 133.1577,-433.5085 133.5625,-428.5249 128.6725,-433.1443 133.9672,-423.5413 133.9672,-423.5413"/>
</g>
<!-- BYN_U1 -->
<g id="node4" class="node">
<title>BYN_U1</title>
<polygon fill="#8fbc8f" stroke="#8fbc8f" points="70,-630 2,-630 2,-594 70,-594 70,-630"/>
<text text-anchor="middle" x="36" y="-608.3" font-family="Times,serif" font-size="14.00" fill="#000000">BYN_U1</text>
</g>
<!-- BYN_U1&#45;&gt;ELC -->
<g id="edge5" class="edge">
<title>BYN_U1&#45;&gt;ELC</title>
<path fill="none" stroke="#228b22" d="M63.9753,-593.8403C66.9472,-591.1273 69.7137,-588.1673 72,-585 105.4431,-538.6694 122.0783,-473.473 129.6744,-433.0247"/>
<polygon fill="#228b22" stroke="#228b22" points="131.4578,-423.0531 134.1269,-433.6892 130.5775,-427.975 129.6972,-432.8969 129.6972,-432.8969 129.6972,-432.8969 130.5775,-427.975 125.2675,-432.1047 131.4578,-423.0531 131.4578,-423.0531"/>
</g>
<!-- BWD_U1 -->
<g id="node5" class="node">
<title>BWD_U1</title>
<polygon fill="#8fbc8f" stroke="#8fbc8f" points="72,-576 0,-576 0,-540 72,-540 72,-576"/>
<text text-anchor="middle" x="36" y="-554.3" font-family="Times,serif" font-size="14.00" fill="#000000">BWD_U1</text>
</g>
<!-- BWD_U1&#45;&gt;ELC -->
<g id="edge13" class="edge">
<title>BWD_U1&#45;&gt;ELC</title>
<path fill="none" stroke="#228b22" d="M63.2638,-539.8933C66.429,-537.1368 69.4365,-534.1516 72,-531 96.1823,-501.2705 113.5641,-460.7779 123.9234,-431.9133"/>
<polygon fill="#228b22" stroke="#228b22" points="127.2944,-422.2252 128.2582,-433.1487 125.6513,-426.9475 124.0081,-431.6698 124.0081,-431.6698 124.0081,-431.6698 125.6513,-426.9475 119.758,-430.191 127.2944,-422.2252 127.2944,-422.2252"/>
</g>
<!-- QDC_U2 -->
<g id="node6" class="node">
<title>QDC_U2</title>
<polygon fill="#8fbc8f" stroke="#8fbc8f" points="70,-522 2,-522 2,-486 70,-486 70,-522"/>
<text text-anchor="middle" x="36" y="-500.3" font-family="Times,serif" font-size="14.00" fill="#000000">QDC_U2</text>
</g>
<!-- QDC_U2&#45;&gt;ELC -->
<g id="edge4" class="edge">
<title>QDC_U2&#45;&gt;ELC</title>
<path fill="none" stroke="#228b22" d="M61.8653,-485.9188C65.3959,-483.0776 68.8759,-480.0628 72,-477 87.3767,-461.9252 102.3196,-443.0673 113.8219,-427.3409"/>
<polygon fill="#228b22" stroke="#228b22" points="119.839,-418.9702 117.6561,-429.7166 116.9206,-423.0301 114.0022,-427.0901 114.0022,-427.0901 114.0022,-427.0901 116.9206,-423.0301 110.3482,-424.4635 119.839,-418.9702 119.839,-418.9702"/>
</g>
<!-- NGP -->
<g id="node7" class="node">
<title>NGP</title>
<polygon fill="#8fbc8f" stroke="#8fbc8f" points="63,-468 9,-468 9,-432 63,-432 63,-468"/>
<text text-anchor="middle" x="36" y="-446.3" font-family="Times,serif" font-size="14.00" fill="#000000">NGP</text>
</g>
<!-- NGP&#45;&gt;ELC -->
<g id="edge8" class="edge">
<title>NGP&#45;&gt;ELC</title>
<path fill="none" stroke="#228b22" d="M63.1335,-435.2443C75.2397,-428.6607 89.6119,-420.8448 102.3311,-413.9278"/>
<polygon fill="#228b22" stroke="#228b22" points="111.2446,-409.0805 104.6094,-417.8113 106.8521,-411.4693 102.4596,-413.858 102.4596,-413.858 102.4596,-413.858 106.8521,-411.4693 100.3097,-409.9048 111.2446,-409.0805 111.2446,-409.0805"/>
</g>
<!-- QDC_U1 -->
<g id="node8" class="node">
<title>QDC_U1</title>
<polygon fill="#8fbc8f" stroke="#8fbc8f" points="70,-414 2,-414 2,-378 70,-378 70,-414"/>
<text text-anchor="middle" x="36" y="-392.3" font-family="Times,serif" font-size="14.00" fill="#000000">QDC_U1</text>
</g>
<!-- QDC_U1&#45;&gt;ELC -->
<g id="edge10" class="edge">
<title>QDC_U1&#45;&gt;ELC</title>
<path fill="none" stroke="#228b22" d="M70.1726,-396C79.0434,-396 88.6466,-396 97.6837,-396"/>
<polygon fill="#228b22" stroke="#228b22" points="107.9547,-396 97.9547,-400.5001 102.9547,-396 97.9547,-396.0001 97.9547,-396.0001 97.9547,-396.0001 102.9547,-396 97.9546,-391.5001 107.9547,-396 107.9547,-396"/>
</g>
<!-- LAS_U2 -->
<g id="node9" class="node">
<title>LAS_U2</title>
<polygon fill="#8fbc8f" stroke="#8fbc8f" points="68.5,-360 3.5,-360 3.5,-324 68.5,-324 68.5,-360"/>
<text text-anchor="middle" x="36" y="-338.3" font-family="Times,serif" font-size="14.00" fill="#000000">LAS_U2</text>
</g>
<!-- LAS_U2&#45;&gt;ELC -->
<g id="edge12" class="edge">
<title>LAS_U2&#45;&gt;ELC</title>
<path fill="none" stroke="#228b22" d="M68.5137,-359.6816C79.3841,-365.5931 91.5036,-372.1839 102.4028,-378.1111"/>
<polygon fill="#228b22" stroke="#228b22" points="111.2168,-382.9044 100.282,-382.0802 106.8244,-380.5157 102.4319,-378.1269 102.4319,-378.1269 102.4319,-378.1269 106.8244,-380.5157 104.5817,-374.1737 111.2168,-382.9044 111.2168,-382.9044"/>
</g>
<!-- SOL -->
<g id="node10" class="node">
<title>SOL</title>
<polygon fill="#8fbc8f" stroke="#8fbc8f" points="63,-306 9,-306 9,-270 63,-270 63,-306"/>
<text text-anchor="middle" x="36" y="-284.3" font-family="Times,serif" font-size="14.00" fill="#000000">SOL</text>
</g>
<!-- SOL&#45;&gt;ELC -->
<g id="edge2" class="edge">
<title>SOL&#45;&gt;ELC</title>
<path fill="none" stroke="#228b22" d="M61.8653,-306.0812C65.3959,-308.9224 68.8759,-311.9372 72,-315 87.3767,-330.0748 102.3196,-348.9327 113.8219,-364.6591"/>
<polygon fill="#228b22" stroke="#228b22" points="119.839,-373.0298 110.3482,-367.5365 116.9206,-368.9699 114.0022,-364.9099 114.0022,-364.9099 114.0022,-364.9099 116.9206,-368.9699 117.6561,-362.2834 119.839,-373.0298 119.839,-373.0298"/>
</g>
<!-- BYN_U2 -->
<g id="node11" class="node">
<title>BYN_U2</title>
<polygon fill="#8fbc8f" stroke="#8fbc8f" points="70,-252 2,-252 2,-216 70,-216 70,-252"/>
<text text-anchor="middle" x="36" y="-230.3" font-family="Times,serif" font-size="14.00" fill="#000000">BYN_U2</text>
</g>
<!-- BYN_U2&#45;&gt;ELC -->
<g id="edge7" class="edge">
<title>BYN_U2&#45;&gt;ELC</title>
<path fill="none" stroke="#228b22" d="M63.2638,-252.1067C66.429,-254.8632 69.4365,-257.8484 72,-261 96.1823,-290.7295 113.5641,-331.2221 123.9234,-360.0867"/>
<polygon fill="#228b22" stroke="#228b22" points="127.2944,-369.7748 119.758,-361.809 125.6513,-365.0525 124.0081,-360.3302 124.0081,-360.3302 124.0081,-360.3302 125.6513,-365.0525 128.2582,-358.8513 127.2944,-369.7748 127.2944,-369.7748"/>
</g>
<!-- CPP -->
<g id="node12" class="node">
<title>CPP</title>
<polygon fill="#8fbc8f" stroke="#8fbc8f" points="63,-198 9,-198 9,-162 63,-162 63,-198"/>
<text text-anchor="middle" x="36" y="-176.3" font-family="Times,serif" font-size="14.00" fill="#000000">CPP</text>
</g>
<!-- CPP&#45;&gt;ELC -->
<g id="edge15" class="edge">
<title>CPP&#45;&gt;ELC</title>
<path fill="none" stroke="#228b22" d="M63.2583,-197.5134C66.5015,-200.4004 69.5308,-203.5793 72,-207 105.4431,-253.3306 122.0783,-318.527 129.6744,-358.9753"/>
<polygon fill="#228b22" stroke="#228b22" points="131.4578,-368.9469 125.2675,-359.8953 130.5775,-364.025 129.6972,-359.1031 129.6972,-359.1031 129.6972,-359.1031 130.5775,-364.025 134.1269,-358.3108 131.4578,-368.9469 131.4578,-368.9469"/>
</g>
<!-- WND -->
<g id="node13" class="node">
<title>WND</title>
<polygon fill="#8fbc8f" stroke="#8fbc8f" points="63,-144 9,-144 9,-108 63,-108 63,-144"/>
<text text-anchor="middle" x="36" y="-122.3" font-family="Times,serif" font-size="14.00" fill="#000000">WND</text>
</g>
<!-- WND&#45;&gt;ELC -->
<g id="edge3" class="edge">
<title>WND&#45;&gt;ELC</title>
<path fill="none" stroke="#228b22" d="M63.1217,-143.0374C66.4681,-146.0318 69.5621,-149.3672 72,-153 114.7515,-216.7046 128.6375,-307.6566 133.1415,-358.2903"/>
<polygon fill="#228b22" stroke="#228b22" points="133.9672,-368.4587 128.6725,-358.8557 133.5625,-363.4751 133.1577,-358.4915 133.1577,-358.4915 133.1577,-358.4915 133.5625,-363.4751 137.643,-358.1272 133.9672,-368.4587 133.9672,-368.4587"/>
</g>
<!-- LAS_U1 -->
<g id="node14" class="node">
<title>LAS_U1</title>
<polygon fill="#8fbc8f" stroke="#8fbc8f" points="68.5,-90 3.5,-90 3.5,-54 68.5,-54 68.5,-90"/>
<text text-anchor="middle" x="36" y="-68.3" font-family="Times,serif" font-size="14.00" fill="#000000">LAS_U1</text>
</g>
<!-- LAS_U1&#45;&gt;ELC -->
<g id="edge1" class="edge">
<title>LAS_U1&#45;&gt;ELC</title>
<path fill="none" stroke="#228b22" d="M64.6785,-90.2503C67.453,-92.916 69.9807,-95.8401 72,-99 99.4081,-141.8888 121.4806,-289.0409 130.674,-358.7761"/>
<polygon fill="#228b22" stroke="#228b22" points="131.987,-368.879 126.2357,-359.5424 131.3426,-363.9207 130.6981,-358.9624 130.6981,-358.9624 130.6981,-358.9624 131.3426,-363.9207 135.1606,-358.3824 131.987,-368.879 131.987,-368.879"/>
</g>
<!-- DRS_U2 -->
<g id="node15" class="node">
<title>DRS_U2</title>
<polygon fill="#8fbc8f" stroke="#8fbc8f" points="69,-36 3,-36 3,0 69,0 69,-36"/>
<text text-anchor="middle" x="36" y="-14.3" font-family="Times,serif" font-size="14.00" fill="#000000">DRS_U2</text>
</g>
<!-- DRS_U2&#45;&gt;ELC -->
<g id="edge11" class="edge">
<title>DRS_U2&#45;&gt;ELC</title>
<path fill="none" stroke="#228b22" d="M64.7778,-36.1879C67.5344,-38.8648 70.0308,-41.8086 72,-45 104.2466,-97.2599 124.5218,-279.2414 132.0188,-358.561"/>
<polygon fill="#228b22" stroke="#228b22" points="132.9513,-368.603 127.5459,-359.0619 132.4889,-363.6244 132.0266,-358.6458 132.0266,-358.6458 132.0266,-358.6458 132.4889,-363.6244 136.5073,-358.2297 132.9513,-368.603 132.9513,-368.603"/>
</g>
</g>
</svg>
