<?xml version="1.0" encoding="UTF-8" standalone="no"?>
<!DOCTYPE svg PUBLIC "-//W3C//DTD SVG 1.1//EN"
 "http://www.w3.org/Graphics/SVG/1.1/DTD/svg11.dtd">
<!-- Generated by graphviz version 2.40.1 (20161225.0304)
 -->
<!-- Title: model Pages: 1 -->
<svg width="227pt" height="800pt"
 viewBox="0.00 0.00 226.60 800.00" xmlns="http://www.w3.org/2000/svg" xmlns:xlink="http://www.w3.org/1999/xlink">
<g id="graph0" class="graph" transform="scale(1 1) rotate(0) translate(4 796)">
<title>model</title>
<polygon fill="#ffffff" stroke="transparent" points="-4,4 -4,-796 222.5952,-796 222.5952,4 -4,4"/>
<!-- NATGAS_PLANT -->
<g id="node1" class="node">
<title>NATGAS_PLANT</title>
<polygon fill="#8fbc8f" stroke="#8fbc8f" points="125,-792 3,-792 3,-756 125,-756 125,-792"/>
<text text-anchor="middle" x="64" y="-770.3" font-family="Times,serif" font-size="14.00" fill="#000000">NATGAS_PLANT</text>
</g>
<!-- ELC -->
<g id="node16" class="node">
<title>ELC</title>
<ellipse fill="#b0c4de" stroke="#b0c4de" cx="191.2976" cy="-396" rx="27.0966" ry="27.0966"/>
<text text-anchor="middle" x="191.2976" y="-392.3" font-family="Times,serif" font-size="14.00" fill="#000000">ELC</text>
</g>
<!-- NATGAS_PLANT&#45;&gt;ELC -->
<g id="edge8" class="edge">
<title>NATGAS_PLANT&#45;&gt;ELC</title>
<path fill="none" stroke="#228b22" d="M118.5484,-755.961C122.0716,-753.3594 125.2871,-750.3894 128,-747 166.4661,-698.9426 183.363,-513.8133 188.992,-433.5145"/>
<polygon fill="#228b22" stroke="#228b22" points="189.6829,-423.3546 193.4939,-433.6369 189.3436,-428.3431 189.0043,-433.3316 189.0043,-433.3316 189.0043,-433.3316 189.3436,-428.3431 184.5147,-433.0262 189.6829,-423.3546 189.6829,-423.3546"/>
</g>
<!-- LASALLE_U1 -->
<g id="node2" class="node">
<title>LASALLE_U1</title>
<polygon fill="#8fbc8f" stroke="#8fbc8f" points="114,-738 14,-738 14,-702 114,-702 114,-738"/>
<text text-anchor="middle" x="64" y="-716.3" font-family="Times,serif" font-size="14.00" fill="#000000">LASALLE_U1</text>
</g>
<!-- LASALLE_U1&#45;&gt;ELC -->
<g id="edge1" class="edge">
<title>LASALLE_U1&#45;&gt;ELC</title>
<path fill="none" stroke="#228b22" d="M114.1666,-704.7154C119.3758,-701.5094 124.1582,-697.6474 128,-693 160.4293,-653.77 179.9486,-504.7574 187.5838,-433.8868"/>
<polygon fill="#228b22" stroke="#228b22" points="188.6658,-423.6156 192.0933,-434.0321 188.1419,-428.5881 187.618,-433.5606 187.618,-433.5606 187.618,-433.5606 188.1419,-428.5881 183.1428,-433.0891 188.6658,-423.6156 188.6658,-423.6156"/>
</g>
<!-- BYRON_U2 -->
<g id="node3" class="node">
<title>BYRON_U2</title>
<polygon fill="#8fbc8f" stroke="#8fbc8f" points="107.5,-684 20.5,-684 20.5,-648 107.5,-648 107.5,-684"/>
<text text-anchor="middle" x="64" y="-662.3" font-family="Times,serif" font-size="14.00" fill="#000000">BYRON_U2</text>
</g>
<!-- BYRON_U2&#45;&gt;ELC -->
<g id="edge4" class="edge">
<title>BYRON_U2&#45;&gt;ELC</title>
<path fill="none" stroke="#228b22" d="M107.5148,-654.0627C115.1893,-650.2957 122.477,-645.3841 128,-639 154.5706,-608.2863 175.9928,-493.5679 185.6867,-433.3881"/>
<polygon fill="#228b22" stroke="#228b22" points="187.3046,-423.1681 190.1856,-433.7487 186.5228,-428.1066 185.7409,-433.0451 185.7409,-433.0451 185.7409,-433.0451 186.5228,-428.1066 181.2963,-432.3415 187.3046,-423.1681 187.3046,-423.1681"/>
</g>
<!-- QUAD_CITIES_U2 -->
<g id="node4" class="node">
<title>QUAD_CITIES_U2</title>
<polygon fill="#8fbc8f" stroke="#8fbc8f" points="128,-630 0,-630 0,-594 128,-594 128,-630"/>
<text text-anchor="middle" x="64" y="-608.3" font-family="Times,serif" font-size="14.00" fill="#000000">QUAD_CITIES_U2</text>
</g>
<!-- QUAD_CITIES_U2&#45;&gt;ELC -->
<g id="edge13" class="edge">
<title>QUAD_CITIES_U2&#45;&gt;ELC</title>
<path fill="none" stroke="#228b22" d="M117.4119,-593.9204C121.2849,-591.3195 124.8852,-588.3612 128,-585 167.2464,-542.6492 182.2227,-475.2124 187.8939,-433.3836"/>
<polygon fill="#228b22" stroke="#228b22" points="189.1443,-423.3318 192.3753,-433.8108 188.527,-428.2935 187.9098,-433.2553 187.9098,-433.2553 187.9098,-433.2553 188.527,-428.2935 183.4442,-432.6997 189.1443,-423.3318 189.1443,-423.3318"/>
</g>
<!-- WIND_FARM -->
<g id="node5" class="node">
<title>WIND_FARM</title>
<polygon fill="#8fbc8f" stroke="#8fbc8f" points="114,-576 14,-576 14,-540 114,-540 114,-576"/>
<text text-anchor="middle" x="64" y="-554.3" font-family="Times,serif" font-size="14.00" fill="#000000">WIND_FARM</text>
</g>
<!-- WIND_FARM&#45;&gt;ELC -->
<g id="edge5" class="edge">
<title>WIND_FARM&#45;&gt;ELC</title>
<path fill="none" stroke="#228b22" d="M114.151,-541.2513C119.1717,-538.3245 123.9144,-534.9285 128,-531 155.9964,-504.0805 172.9188,-462.3428 182.1311,-432.4034"/>
<polygon fill="#228b22" stroke="#228b22" points="184.9646,-422.7407 186.4688,-433.603 183.5576,-427.5387 182.1506,-432.3367 182.1506,-432.3367 182.1506,-432.3367 183.5576,-427.5387 177.8324,-431.0704 184.9646,-422.7407 184.9646,-422.7407"/>
</g>
<!-- DRESDEN_U2 -->
<g id="node6" class="node">
<title>DRESDEN_U2</title>
<polygon fill="#8fbc8f" stroke="#8fbc8f" points="115,-522 13,-522 13,-486 115,-486 115,-522"/>
<text text-anchor="middle" x="64" y="-500.3" font-family="Times,serif" font-size="14.00" fill="#000000">DRESDEN_U2</text>
</g>
<!-- DRESDEN_U2&#45;&gt;ELC -->
<g id="edge11" class="edge">
<title>DRESDEN_U2&#45;&gt;ELC</title>
<path fill="none" stroke="#228b22" d="M113.9806,-485.9321C118.9191,-483.2718 123.6909,-480.2986 128,-477 145.338,-463.7279 160.5609,-444.6415 171.7304,-428.3295"/>
<polygon fill="#228b22" stroke="#228b22" points="177.5064,-419.6072 175.737,-430.4294 174.7458,-423.776 171.9851,-427.9449 171.9851,-427.9449 171.9851,-427.9449 174.7458,-423.776 168.2332,-425.4603 177.5064,-419.6072 177.5064,-419.6072"/>
</g>
<!-- BRAIDWOOD_U1 -->
<g id="node7" class="node">
<title>BRAIDWOOD_U1</title>
<polygon fill="#8fbc8f" stroke="#8fbc8f" points="126.5,-468 1.5,-468 1.5,-432 126.5,-432 126.5,-468"/>
<text text-anchor="middle" x="64" y="-446.3" font-family="Times,serif" font-size="14.00" fill="#000000">BRAIDWOOD_U1</text>
</g>
<!-- BRAIDWOOD_U1&#45;&gt;ELC -->
<g id="edge2" class="edge">
<title>BRAIDWOOD_U1&#45;&gt;ELC</title>
<path fill="none" stroke="#228b22" d="M107.0425,-431.869C114.0494,-428.9096 121.2279,-425.8728 128,-423 137.3057,-419.0524 147.3745,-414.7649 156.6854,-410.7934"/>
<polygon fill="#228b22" stroke="#228b22" points="166.0503,-406.7965 158.6194,-414.8607 161.4516,-408.7592 156.853,-410.7219 156.853,-410.7219 156.853,-410.7219 161.4516,-408.7592 155.0865,-406.5831 166.0503,-406.7965 166.0503,-406.7965"/>
</g>
<!-- LASALLE_U2 -->
<g id="node8" class="node">
<title>LASALLE_U2</title>
<polygon fill="#8fbc8f" stroke="#8fbc8f" points="114,-414 14,-414 14,-378 114,-378 114,-414"/>
<text text-anchor="middle" x="64" y="-392.3" font-family="Times,serif" font-size="14.00" fill="#000000">LASALLE_U2</text>
</g>
<!-- LASALLE_U2&#45;&gt;ELC -->
<g id="edge14" class="edge">
<title>LASALLE_U2&#45;&gt;ELC</title>
<path fill="none" stroke="#228b22" d="M114.3114,-396C127.319,-396 141.1048,-396 153.3615,-396"/>
<polygon fill="#228b22" stroke="#228b22" points="163.6808,-396 153.6808,-400.5001 158.6808,-396 153.6808,-396.0001 153.6808,-396.0001 153.6808,-396.0001 158.6808,-396 153.6808,-391.5001 163.6808,-396 163.6808,-396"/>
</g>
<!-- BYRON_U1 -->
<g id="node9" class="node">
<title>BYRON_U1</title>
<polygon fill="#8fbc8f" stroke="#8fbc8f" points="107.5,-360 20.5,-360 20.5,-324 107.5,-324 107.5,-360"/>
<text text-anchor="middle" x="64" y="-338.3" font-family="Times,serif" font-size="14.00" fill="#000000">BYRON_U1</text>
</g>
<!-- BYRON_U1&#45;&gt;ELC -->
<g id="edge10" class="edge">
<title>BYRON_U1&#45;&gt;ELC</title>
<path fill="none" stroke="#228b22" d="M107.0425,-360.131C114.0494,-363.0904 121.2279,-366.1272 128,-369 137.3057,-372.9476 147.3745,-377.2351 156.6854,-381.2066"/>
<polygon fill="#228b22" stroke="#228b22" points="166.0503,-385.2035 155.0865,-385.4169 161.4516,-383.2408 156.853,-381.2781 156.853,-381.2781 156.853,-381.2781 161.4516,-383.2408 158.6194,-377.1393 166.0503,-385.2035 166.0503,-385.2035"/>
</g>
<!-- COAL_PLANT -->
<g id="node10" class="node">
<title>COAL_PLANT</title>
<polygon fill="#8fbc8f" stroke="#8fbc8f" points="116,-306 12,-306 12,-270 116,-270 116,-306"/>
<text text-anchor="middle" x="64" y="-284.3" font-family="Times,serif" font-size="14.00" fill="#000000">COAL_PLANT</text>
</g>
<!-- COAL_PLANT&#45;&gt;ELC -->
<g id="edge12" class="edge">
<title>COAL_PLANT&#45;&gt;ELC</title>
<path fill="none" stroke="#228b22" d="M113.9806,-306.0679C118.9191,-308.7282 123.6909,-311.7014 128,-315 145.338,-328.2721 160.5609,-347.3585 171.7304,-363.6705"/>
<polygon fill="#228b22" stroke="#228b22" points="177.5064,-372.3928 168.2332,-366.5397 174.7458,-368.224 171.9851,-364.0551 171.9851,-364.0551 171.9851,-364.0551 174.7458,-368.224 175.737,-361.5706 177.5064,-372.3928 177.5064,-372.3928"/>
</g>
<!-- CLINTON_U1 -->
<g id="node11" class="node">
<title>CLINTON_U1</title>
<polygon fill="#8fbc8f" stroke="#8fbc8f" points="113.5,-252 14.5,-252 14.5,-216 113.5,-216 113.5,-252"/>
<text text-anchor="middle" x="64" y="-230.3" font-family="Times,serif" font-size="14.00" fill="#000000">CLINTON_U1</text>
</g>
<!-- CLINTON_U1&#45;&gt;ELC -->
<g id="edge7" class="edge">
<title>CLINTON_U1&#45;&gt;ELC</title>
<path fill="none" stroke="#228b22" d="M113.5085,-250.3776C118.7669,-253.3874 123.7405,-256.9044 128,-261 155.9964,-287.9195 172.9188,-329.6572 182.1311,-359.5966"/>
<polygon fill="#228b22" stroke="#228b22" points="184.9646,-369.2593 177.8324,-360.9296 183.5576,-364.4613 182.1506,-359.6633 182.1506,-359.6633 182.1506,-359.6633 183.5576,-364.4613 186.4688,-358.397 184.9646,-369.2593 184.9646,-369.2593"/>
</g>
<!-- DRESDEN_U3 -->
<g id="node12" class="node">
<title>DRESDEN_U3</title>
<polygon fill="#8fbc8f" stroke="#8fbc8f" points="115,-198 13,-198 13,-162 115,-162 115,-198"/>
<text text-anchor="middle" x="64" y="-176.3" font-family="Times,serif" font-size="14.00" fill="#000000">DRESDEN_U3</text>
</g>
<!-- DRESDEN_U3&#45;&gt;ELC -->
<g id="edge6" class="edge">
<title>DRESDEN_U3&#45;&gt;ELC</title>
<path fill="none" stroke="#228b22" d="M115.2452,-196.6784C119.942,-199.6043 124.3114,-203.0196 128,-207 167.2464,-249.3508 182.2227,-316.7876 187.8939,-358.6164"/>
<polygon fill="#228b22" stroke="#228b22" points="189.1443,-368.6682 183.4442,-359.3003 188.527,-363.7065 187.9098,-358.7447 187.9098,-358.7447 187.9098,-358.7447 188.527,-363.7065 192.3753,-358.1892 189.1443,-368.6682 189.1443,-368.6682"/>
</g>
<!-- SOLAR_FARM -->
<g id="node13" class="node">
<title>SOLAR_FARM</title>
<polygon fill="#8fbc8f" stroke="#8fbc8f" points="117.5,-144 10.5,-144 10.5,-108 117.5,-108 117.5,-144"/>
<text text-anchor="middle" x="64" y="-122.3" font-family="Times,serif" font-size="14.00" fill="#000000">SOLAR_FARM</text>
</g>
<!-- SOLAR_FARM&#45;&gt;ELC -->
<g id="edge9" class="edge">
<title>SOLAR_FARM&#45;&gt;ELC</title>
<path fill="none" stroke="#228b22" d="M117.6657,-143.8524C121.4836,-146.5026 125.0018,-149.5343 128,-153 154.5706,-183.7137 175.9928,-298.4321 185.6867,-358.6119"/>
<polygon fill="#228b22" stroke="#228b22" points="187.3046,-368.8319 181.2963,-359.6585 186.5228,-363.8934 185.7409,-358.9549 185.7409,-358.9549 185.7409,-358.9549 186.5228,-363.8934 190.1856,-358.2513 187.3046,-368.8319 187.3046,-368.8319"/>
</g>
<!-- QUAD_CITIES_U1 -->
<g id="node14" class="node">
<title>QUAD_CITIES_U1</title>
<polygon fill="#8fbc8f" stroke="#8fbc8f" points="128,-90 0,-90 0,-54 128,-54 128,-90"/>
<text text-anchor="middle" x="64" y="-68.3" font-family="Times,serif" font-size="14.00" fill="#000000">QUAD_CITIES_U1</text>
</g>
<!-- QUAD_CITIES_U1&#45;&gt;ELC -->
<g id="edge15" class="edge">
<title>QUAD_CITIES_U1&#45;&gt;ELC</title>
<path fill="none" stroke="#228b22" d="M118.4307,-90.1348C121.9802,-92.7149 125.2339,-95.6539 128,-99 160.4293,-138.23 179.9486,-287.2426 187.5838,-358.1132"/>
<polygon fill="#228b22" stroke="#228b22" points="188.6658,-368.3844 183.1428,-358.9109 188.1419,-363.4119 187.618,-358.4394 187.618,-358.4394 187.618,-358.4394 188.1419,-363.4119 192.0933,-357.9679 188.6658,-368.3844 188.6658,-368.3844"/>
</g>
<!-- BRAIDWOOD_U2 -->
<g id="node15" class="node">
<title>BRAIDWOOD_U2</title>
<polygon fill="#8fbc8f" stroke="#8fbc8f" points="126.5,-36 1.5,-36 1.5,0 126.5,0 126.5,-36"/>
<text text-anchor="middle" x="64" y="-14.3" font-family="Times,serif" font-size="14.00" fill="#000000">BRAIDWOOD_U2</text>
</g>
<!-- BRAIDWOOD_U2&#45;&gt;ELC -->
<g id="edge3" class="edge">
<title>BRAIDWOOD_U2&#45;&gt;ELC</title>
<path fill="none" stroke="#228b22" d="M118.5484,-36.039C122.0716,-38.6406 125.2871,-41.6106 128,-45 166.4661,-93.0574 183.363,-278.1867 188.992,-358.4855"/>
<polygon fill="#228b22" stroke="#228b22" points="189.6829,-368.6454 184.5147,-358.9738 189.3436,-363.6569 189.0043,-358.6684 189.0043,-358.6684 189.0043,-358.6684 189.3436,-363.6569 193.4939,-358.3631 189.6829,-368.6454 189.6829,-368.6454"/>
</g>
</g>
</svg>
